<svg width="10" height="10" viewBox="0 0 10 10" fill="none" xmlns="http://www.w3.org/2000/svg">
<path d="M8.96942 3.65488C9.23246 3.39068 9.23246 2.96234 8.96942 2.69815C8.70633 2.43395 8.27979 2.43395 8.01671 2.69815L5 5.72771L1.98336 2.69822C1.72028 2.43403 1.29376 2.43403 1.03068 2.69822C0.767604 2.96241 0.767604 3.39076 1.03068 3.65495L4.51388 7.15296C4.51704 7.15629 4.52029 7.15958 4.52358 7.16288C4.60987 7.24958 4.71379 7.30783 4.82379 7.33763C4.82646 7.33838 4.82917 7.33908 4.83188 7.33975C5.05504 7.39733 5.30179 7.33842 5.4765 7.16296C5.48083 7.15863 5.48508 7.15425 5.48929 7.14983L8.96942 3.65488Z" fill="#0D0C22"/>
</svg>
